<svg width="23" height="28" viewBox="0 0 23 28" fill="none" xmlns="http://www.w3.org/2000/svg">
<path d="M11.5814 8.04528C10.4754 8.04528 8.76396 6.78762 6.96147 6.83195C4.58148 6.86345 2.39983 8.21211 1.17367 10.3483C-1.29614 14.6357 0.536678 20.9684 2.94583 24.4532C4.12765 26.1495 5.52181 28.0581 7.3698 27.9986C9.14312 27.9228 9.80812 26.8471 11.9606 26.8471C14.0968 26.8471 14.7022 27.9986 16.5806 27.9531C18.4904 27.9228 19.7025 26.2265 20.8692 24.5138C22.2179 22.5445 22.7779 20.6347 22.8082 20.5297C22.7627 20.5145 19.0959 19.1052 19.0516 14.8632C19.0212 11.3166 21.9449 9.62027 22.0814 9.54443C20.4142 7.10612 17.8546 6.83312 16.9597 6.77245C14.6264 6.59045 12.6723 8.04528 11.5814 8.04528ZM15.5224 4.4683C16.5059 3.28764 17.1557 1.63682 16.9749 0C15.5667 0.0606663 13.8693 0.93916 12.8543 2.12099C11.9443 3.16631 11.1579 4.84863 11.3691 6.45396C12.9301 6.57529 14.5366 5.65129 15.5212 4.46947" fill="white"/>
</svg>
