<svg width="25" height="26" viewBox="0 0 25 26" fill="none" xmlns="http://www.w3.org/2000/svg">
<path d="M24.543 12.8002C24.543 11.7706 24.4594 11.0193 24.2786 10.2402H12.522V14.8872H19.4229C19.2838 16.042 18.5325 17.7811 16.8629 18.9498L16.8395 19.1054L20.5567 21.9851L20.8142 22.0108C23.1794 19.8264 24.543 16.6124 24.543 12.8002Z" fill="#4285F4"/>
<path d="M12.5222 25.0436C15.903 25.0436 18.7413 23.9304 20.8144 22.0105L16.8631 18.9495C15.8057 19.6869 14.3865 20.2017 12.5222 20.2017C9.21086 20.2017 6.40042 18.0174 5.39857 14.9982L5.25172 15.0107L1.38649 18.002L1.33594 18.1426C3.39507 22.233 7.62469 25.0436 12.5222 25.0436Z" fill="#34A853"/>
<path d="M5.39827 14.9985C5.13392 14.2194 4.98094 13.3845 4.98094 12.522C4.98094 11.6593 5.13392 10.8245 5.38436 10.0454L5.37736 9.87946L1.46368 6.84006L1.33564 6.90096C0.486968 8.5984 0 10.5045 0 12.522C0 14.5394 0.486968 16.4454 1.33564 18.1428L5.39827 14.9985Z" fill="#FBBC05"/>
<path d="M12.5222 4.84176C14.8735 4.84176 16.4596 5.85742 17.3639 6.70619L20.8979 3.25569C18.7275 1.23828 15.903 0 12.5222 0C7.62469 0 3.39507 2.81045 1.33594 6.9009L5.38466 10.0453C6.40042 7.02616 9.21086 4.84176 12.5222 4.84176Z" fill="#EB4335"/>
</svg>
