<svg width="65" height="40" viewBox="0 0 65 40" fill="none" xmlns="http://www.w3.org/2000/svg">
<g clip-path="url(#clip0_583_385)">
<path d="M18.3415 0.382389C18.3025 0.394499 18.2733 0.416292 18.2733 0.430822C18.2733 0.445353 18.2562 0.447775 18.2343 0.44051C18.2148 0.433245 18.2026 0.435667 18.21 0.447775C18.2173 0.45746 18.2002 0.488943 18.171 0.513159C18.1369 0.542219 18.1271 0.547062 18.1393 0.522846C18.1588 0.491364 18.1539 0.491364 18.1198 0.520424C18.0979 0.537376 18.0857 0.564014 18.0955 0.578545C18.1028 0.590652 18.0979 0.595495 18.0857 0.58823C18.0565 0.57128 17.9737 0.651194 17.9931 0.675409C18.0005 0.685097 17.998 0.687517 17.9883 0.680254C17.9566 0.656036 17.5693 1.06045 17.5839 1.10162C17.5936 1.13068 17.5912 1.1331 17.5741 1.10888C17.5547 1.08467 17.5425 1.08709 17.5157 1.11857C17.4962 1.14037 17.484 1.16458 17.4889 1.16943C17.5035 1.1888 17.4913 1.22512 17.467 1.22512C17.4548 1.22512 17.4499 1.21302 17.4596 1.19607C17.4694 1.17911 17.467 1.17669 17.4475 1.18638C17.4329 1.19607 17.4255 1.21302 17.4329 1.22512C17.445 1.2445 17.3744 1.31473 17.35 1.30262C17.3427 1.3002 17.3354 1.30504 17.3354 1.31473C17.3354 1.35589 17.294 1.39464 17.2696 1.38011C17.255 1.37042 17.2501 1.37527 17.2575 1.38737C17.2672 1.40191 17.2575 1.42612 17.238 1.44307C17.2185 1.46003 17.2014 1.46487 17.2014 1.45276C17.2014 1.44065 17.1868 1.4576 17.1698 1.49151C17.1503 1.52541 17.1235 1.54963 17.1089 1.54478C17.0918 1.54236 17.0796 1.55205 17.0796 1.56658C17.0796 1.60048 16.7605 1.90319 16.7264 1.90319C16.6947 1.90319 16.4316 2.16473 16.4389 2.18894C16.4389 2.19863 16.4341 2.20347 16.4243 2.20105C16.4 2.19621 16.1393 2.45532 16.1466 2.47954C16.149 2.48923 16.1344 2.49407 16.1149 2.48923C16.0955 2.48438 16.0808 2.50134 16.0808 2.5304C16.0808 2.58609 16.0419 2.62 16.0248 2.57641C16.0175 2.55703 16.0004 2.57399 15.9858 2.61273C15.9712 2.65148 15.9468 2.67327 15.9347 2.66601C15.9201 2.65874 15.9006 2.6757 15.8884 2.70718C15.8738 2.73866 15.864 2.75319 15.864 2.74108C15.8616 2.72897 15.73 2.84763 15.5693 3.00504C15.4109 3.16245 15.2867 3.3029 15.294 3.31743C15.3013 3.33196 15.2989 3.33681 15.2891 3.3247C15.2623 3.3029 15.1771 3.3804 15.1941 3.40946C15.2014 3.41914 15.1965 3.42641 15.1844 3.42399C15.1454 3.41188 6.69467 11.8029 6.71659 11.8344C6.72634 11.8513 6.7239 11.8586 6.70928 11.8489C6.67761 11.8295 6.59722 11.9143 6.62158 11.9409C6.63377 11.9506 6.62889 11.953 6.61428 11.9458C6.58261 11.9264 4.13192 14.3602 4.15385 14.3941C4.16116 14.4062 4.14898 14.4159 4.12462 14.4134C4.10026 14.4134 4.0832 14.428 4.0832 14.4522C4.0832 14.474 4.07346 14.5006 4.06128 14.5127C4.0491 14.5224 4.04666 14.52 4.05641 14.5006C4.06615 14.4861 4.06371 14.4716 4.05153 14.4716C4.01987 14.4716 3.97114 14.5345 3.9882 14.5515C3.9955 14.5587 3.9955 14.5781 3.98576 14.5926C3.97114 14.6144 3.9614 14.6144 3.94678 14.5902C3.92973 14.5636 3.92242 14.5684 3.91024 14.6096C3.9005 14.6411 3.87857 14.6653 3.86152 14.6653C3.84203 14.6653 3.82742 14.6823 3.82742 14.704C3.82742 14.7452 3.48149 15.1012 3.44252 15.1012C3.43034 15.1012 3.41328 15.123 3.40598 15.1496C3.39867 15.1811 3.37918 15.1932 3.35725 15.1835C3.33289 15.1738 3.31828 15.186 3.31097 15.2223C3.3061 15.2489 3.29392 15.2683 3.28417 15.2659C3.27199 15.261 3.2452 15.2901 3.22571 15.3288C3.19647 15.3821 3.18429 15.3918 3.16724 15.3652C3.15019 15.3385 3.14532 15.3409 3.14532 15.3748C3.14532 15.3991 3.12583 15.4257 3.1039 15.433C3.04544 15.4548 2.88709 15.6122 2.89684 15.6412C2.89927 15.6533 2.87979 15.6679 2.85299 15.6751C2.82619 15.6824 2.80914 15.6969 2.81645 15.7066C2.82863 15.7284 2.78234 15.7744 2.74337 15.7768C2.73119 15.7793 2.71901 15.7938 2.71901 15.8083C2.71901 15.8253 2.70682 15.8398 2.68977 15.8398C2.65323 15.8398 2.62156 15.8713 2.62156 15.9076C2.62156 15.9246 2.61182 15.9367 2.5972 15.9367C2.55579 15.9367 2.5095 15.9754 2.52412 15.9972C2.53143 16.0093 2.52412 16.0263 2.5095 16.036C2.49001 16.0481 2.48758 16.0432 2.49976 16.019C2.51925 15.9899 2.51438 15.9899 2.48027 16.019C2.45835 16.036 2.44373 16.0602 2.45104 16.0699C2.45835 16.0795 2.44373 16.1038 2.4218 16.1207C2.3877 16.1498 2.38283 16.1498 2.40232 16.1207C2.4145 16.0965 2.41206 16.0917 2.39501 16.1038C2.37796 16.1134 2.36578 16.1377 2.36578 16.157C2.36578 16.1764 2.34385 16.1909 2.31705 16.1909C2.28295 16.1909 2.26833 16.2055 2.2732 16.2321C2.27808 16.2612 2.26346 16.2757 2.23423 16.2757C2.20743 16.2757 2.18307 16.2902 2.17576 16.3096C2.16845 16.3314 2.17576 16.3362 2.19525 16.3241C2.21474 16.312 2.22205 16.3144 2.20987 16.3314C2.20012 16.3459 2.1782 16.3532 2.15871 16.3459C2.12217 16.3314 2.0637 16.4162 2.09294 16.4428C2.10024 16.4525 2.0905 16.4525 2.06858 16.4452C2.04665 16.4355 2.02229 16.4404 2.01255 16.4549C2.00524 16.4694 2.01011 16.4815 2.02473 16.4815C2.03934 16.4815 2.04421 16.4936 2.03691 16.5082C2.02716 16.5227 2.00524 16.5275 1.98818 16.5203C1.9419 16.5033 1.18428 17.2855 1.06004 17.4793C1.02837 17.5277 0.979653 17.6318 0.952856 17.7093C0.906571 17.8401 0.901699 17.9297 0.879774 19.0001C0.867594 19.6321 0.852978 22.0271 0.848105 24.3204C0.840797 28.3912 0.840797 28.4929 0.884647 28.4929C0.969909 28.4929 1.08197 28.3961 1.96139 27.563C2.46322 27.0884 2.51681 27.0375 3.76408 25.8194C5.56677 24.0637 6.48029 23.1629 7.23547 22.4025C7.64473 21.9884 10.2562 19.3851 13.0382 16.6147C15.8202 13.8444 18.1466 11.522 18.21 11.4542C18.2903 11.3646 18.3366 11.3331 18.3683 11.3404C18.3927 11.3476 18.4731 11.4082 18.5461 11.476C18.8409 11.7545 19.0991 11.9869 19.3695 12.2194C19.4694 12.3066 19.5839 12.4059 19.6253 12.4446C19.6643 12.481 19.7179 12.5173 19.7422 12.5246C19.7642 12.5318 19.7837 12.5488 19.7837 12.5609C19.7837 12.573 19.8007 12.5827 19.8202 12.5827C19.8397 12.5827 19.8689 12.6045 19.886 12.6311C19.903 12.6577 19.9249 12.6795 19.9347 12.6795C19.9517 12.6795 20.1442 12.8127 20.2221 12.8781C20.2416 12.8951 20.4073 13.0089 20.5876 13.13C20.7678 13.2511 21.0066 13.4109 21.1186 13.486C21.2282 13.5634 21.3306 13.624 21.3452 13.624C21.3574 13.624 21.3744 13.6409 21.3817 13.6603C21.3915 13.6797 21.4109 13.6966 21.428 13.6966C21.4451 13.6966 21.5084 13.7354 21.5693 13.7814C21.6302 13.8274 21.6911 13.8662 21.7057 13.8662C21.7179 13.8662 21.7447 13.8807 21.7617 13.8976C21.7788 13.9146 21.8494 13.963 21.9177 14.0018C22.1588 14.1374 22.3293 14.2391 22.3415 14.2536C22.3488 14.2609 22.3805 14.2803 22.4146 14.2972C22.5047 14.3432 22.6363 14.4183 22.7191 14.4691C22.7605 14.4958 22.8531 14.5466 22.9262 14.5854C22.9993 14.6217 23.1503 14.704 23.2624 14.767C23.3744 14.8324 23.4816 14.8832 23.4987 14.8832C23.5157 14.8832 23.5474 14.8978 23.5644 14.9147C23.5937 14.9438 23.735 15.0164 23.8762 15.0746C23.9104 15.0891 23.9542 15.1109 23.9737 15.1254C24.0248 15.1569 24.383 15.3191 24.4049 15.3191C24.4146 15.3216 24.4682 15.3409 24.5218 15.3676C24.5754 15.3942 24.6314 15.4136 24.646 15.416C24.6607 15.416 24.6875 15.433 24.7045 15.4523C24.7216 15.4717 24.7557 15.4887 24.78 15.4887C24.8068 15.4887 24.8677 15.5105 24.9165 15.5371C24.9676 15.5637 25.0212 15.5855 25.0383 15.5855C25.0529 15.5855 25.0967 15.6001 25.1357 15.6194C25.294 15.6969 25.4305 15.755 25.4597 15.755C25.4743 15.755 25.5182 15.7696 25.5523 15.7889C25.6132 15.818 25.6546 15.835 25.8616 15.9052C25.9031 15.9197 25.964 15.9464 26.0005 15.9633C26.0346 15.9827 26.0833 15.9972 26.1053 15.9972C26.1272 15.9972 26.1954 16.0166 26.2587 16.0432C26.5243 16.1474 27.2721 16.3556 27.6059 16.4186C27.6936 16.4355 27.7788 16.4573 27.7934 16.467C27.8081 16.4743 27.9006 16.4985 27.9981 16.5179C28.2953 16.576 28.4366 16.605 28.5779 16.6414C28.6509 16.6607 28.7727 16.685 28.8458 16.6995C28.9189 16.7116 29.0407 16.7334 29.1138 16.7479C29.6108 16.8424 29.7179 16.8593 30.5998 16.9804C30.8483 17.0143 31.182 17.0385 32.0493 17.0894C32.4951 17.116 33.4914 17.1015 33.9859 17.0603C34.154 17.0482 34.4561 17.0264 34.6558 17.0143C35.0066 16.9925 35.2454 16.9683 35.6425 16.915C35.7423 16.9029 35.9397 16.8763 36.0809 16.8569C36.3221 16.8254 36.4244 16.8085 36.7582 16.7455C36.8337 16.731 36.975 16.7043 37.0676 16.6874C37.2356 16.6583 37.3526 16.6317 37.5669 16.5784C37.6278 16.5639 37.7472 16.5372 37.8349 16.5203C37.9226 16.5033 38.0127 16.4791 38.0347 16.4719C38.0566 16.4622 38.1394 16.4379 38.2174 16.421C38.4585 16.3653 38.6437 16.3169 38.8215 16.2636C38.9165 16.2345 39.0481 16.1958 39.1138 16.1788C39.2819 16.1328 39.472 16.0699 39.5158 16.0481C39.5377 16.036 39.5889 16.019 39.6352 16.0093C39.679 15.9996 39.7424 15.9778 39.7789 15.9585C39.8154 15.9391 39.8617 15.9246 39.8812 15.9246C39.9007 15.9246 39.9616 15.9028 40.0152 15.8761C40.0688 15.8495 40.1273 15.8301 40.1443 15.8277C40.1638 15.8277 40.2076 15.8132 40.2417 15.7938C40.2783 15.7768 40.3733 15.7381 40.4537 15.7066C40.7826 15.5879 41.014 15.4959 41.1065 15.4499C41.1455 15.4305 41.1869 15.416 41.2016 15.416C41.2162 15.416 41.2795 15.3942 41.3404 15.3652C41.4013 15.3361 41.489 15.2998 41.5329 15.2804C41.5767 15.2634 41.6474 15.232 41.6912 15.2126C41.7326 15.1932 41.8252 15.1545 41.891 15.1254C42.1346 15.0164 42.7728 14.7016 42.9628 14.5926C43.07 14.5321 43.1748 14.474 43.1943 14.4643C43.2137 14.4546 43.2649 14.4256 43.3039 14.3989C43.3453 14.3723 43.4111 14.3335 43.45 14.3142C43.4915 14.2924 43.5889 14.2342 43.6693 14.181C43.7497 14.1277 43.8423 14.072 43.8764 14.055C43.9105 14.0381 43.9762 13.9969 44.0225 13.9606C44.0688 13.9267 44.137 13.8831 44.1736 13.8637C44.232 13.8322 44.5633 13.6167 44.7387 13.4956C44.7777 13.469 44.9044 13.3818 45.0189 13.3043C45.1334 13.2268 45.3063 13.1058 45.3989 13.0404C45.4939 12.9726 45.5962 12.8999 45.6303 12.8781C45.7546 12.7982 46.2004 12.4519 46.444 12.2509C46.6632 12.0669 46.8898 11.8634 47.3112 11.4736C47.5061 11.2919 47.5061 11.2919 47.796 11.6285C47.8398 11.6794 47.9616 11.815 48.064 11.9288C48.2735 12.1589 52.9507 16.8351 54.4221 18.2832C55.3186 19.1647 57.8472 21.6784 59.2552 23.0878C59.5939 23.4244 60.7339 24.5529 61.7912 25.5942C62.846 26.6355 63.723 27.5001 63.7401 27.5146C63.7547 27.5315 63.9496 27.7277 64.1712 27.9505C64.8046 28.5874 64.7949 28.5801 64.8777 28.4324C64.9142 28.367 64.9142 28.3016 64.8972 27.8028C64.885 27.4952 64.8704 25.1268 64.8631 22.5357C64.8509 18.1719 64.846 17.8183 64.807 17.7408C64.6901 17.5011 64.4928 17.2928 62.5878 15.4063C61.8862 14.7137 60.1152 12.9508 58.6487 11.4929C57.1846 10.0351 55.723 8.57968 55.399 8.26003C55.075 7.94037 54.7095 7.5747 54.5853 7.44877C54.2077 7.06615 54.1955 7.05404 51.8155 4.69777C49.5353 2.43837 49.0627 1.96373 48.6389 1.50361C48.4415 1.29051 47.7229 0.57128 47.6255 0.493786C47.606 0.476833 47.5475 0.44293 47.4988 0.416292C47.3916 0.360596 47.3136 0.384811 47.1894 0.505894C47.1456 0.549484 47.0847 0.600338 47.0554 0.619711C47.0238 0.639086 46.9458 0.70447 46.88 0.765011C46.7655 0.869143 46.556 1.04834 46.4074 1.17427C46.3685 1.20575 46.3441 1.24208 46.3538 1.25661C46.3611 1.27114 46.3563 1.27356 46.3417 1.26387C46.3246 1.25418 46.3124 1.25903 46.3124 1.27114C46.3124 1.28567 46.3027 1.29778 46.2881 1.29778C46.2759 1.29778 46.2393 1.32199 46.2077 1.35105C46.0907 1.46487 45.8666 1.63681 45.8398 1.63681C45.835 1.63681 45.796 1.66829 45.7546 1.70703C45.7132 1.74578 45.6255 1.81359 45.5621 1.85718C45.4062 1.96373 45.0457 2.218 44.8751 2.34151C44.8021 2.39478 44.5828 2.5425 44.3879 2.67085C44.193 2.79678 44.0055 2.9227 43.9689 2.94692C43.9324 2.97114 43.8788 2.99293 43.852 2.99293C43.8228 2.99293 43.8057 3.00262 43.8155 3.01473C43.8301 3.04136 43.7472 3.09464 43.7083 3.08495C43.6961 3.08011 43.6693 3.09706 43.6498 3.1237C43.6328 3.14792 43.5913 3.16971 43.5572 3.17213C43.5231 3.17455 43.4988 3.18909 43.4988 3.21088C43.4988 3.23025 43.4768 3.24963 43.45 3.24963C43.4232 3.25205 43.3867 3.25447 43.3697 3.25689C43.3526 3.25931 43.3429 3.269 43.3502 3.28111C43.3697 3.31017 43.299 3.36344 43.2673 3.34407C43.2527 3.33438 43.2137 3.35618 43.1796 3.3925C43.1431 3.43125 43.1041 3.45062 43.0822 3.44336C43.0627 3.43609 43.0505 3.43851 43.0603 3.45062C43.0676 3.46273 43.0018 3.50874 42.9141 3.54991C42.8264 3.59108 42.7509 3.63709 42.7436 3.6492C42.7338 3.66131 42.6973 3.67099 42.6559 3.67099C42.612 3.67099 42.5852 3.6831 42.5852 3.7049C42.5852 3.74364 42.5341 3.76786 42.4488 3.76786C42.4172 3.76786 42.3928 3.77997 42.3952 3.79692C42.4001 3.81387 42.3636 3.83324 42.31 3.84051C42.2174 3.85746 42.1614 3.88894 42.2223 3.88894C42.2466 3.89137 42.2442 3.89863 42.2125 3.91558C42.1906 3.92769 42.1614 3.93495 42.1492 3.92527C42.1151 3.9059 42.0006 3.96401 42.0176 3.99307C42.0249 4.0076 42.0201 4.01003 42.0055 4.00034C41.964 3.97612 41.7984 4.05119 41.8203 4.0851C41.8325 4.10689 41.8252 4.10931 41.796 4.09963C41.7716 4.08994 41.718 4.0972 41.6766 4.11658C41.6327 4.13595 41.5572 4.16986 41.5085 4.18923C41.4573 4.2086 41.4159 4.23766 41.4159 4.25219C41.4159 4.26672 41.4038 4.27156 41.3916 4.2643C41.3526 4.24008 41.2698 4.27641 41.2698 4.31515C41.2698 4.33695 41.243 4.34906 41.1918 4.34906C41.109 4.34906 40.9994 4.39507 41.0749 4.39749C41.1065 4.39749 41.1065 4.39991 41.0749 4.42171C41.0554 4.43382 41.0213 4.43866 40.9994 4.43382C40.9774 4.42655 40.9287 4.43139 40.8897 4.44592C40.8337 4.46772 40.8264 4.4774 40.8556 4.49678C40.8849 4.51615 40.88 4.52099 40.8361 4.51131C40.7558 4.49436 40.595 4.54037 40.6388 4.56943C40.6778 4.59364 40.6681 4.59607 40.4586 4.61302C40.4342 4.61302 40.4196 4.62513 40.4269 4.63723C40.4439 4.66387 40.3075 4.72199 40.2759 4.70262C40.2612 4.69535 40.232 4.69535 40.2101 4.70262C40.1833 4.71473 40.1784 4.72441 40.1979 4.73652C40.2125 4.74621 40.1735 4.768 40.1078 4.78495C40.0444 4.80191 39.9811 4.8237 39.9665 4.83097C39.9543 4.84065 39.8593 4.87213 39.7594 4.90362C39.6595 4.9351 39.5475 4.97626 39.5109 4.99322C39.4768 5.01259 39.4135 5.02954 39.3745 5.03438C39.3331 5.03923 39.2844 5.05618 39.2649 5.07071C39.2454 5.08766 39.1796 5.10946 39.1187 5.12156C39.0554 5.13125 38.9896 5.15547 38.9701 5.17C38.9506 5.18453 38.8849 5.19906 38.824 5.20148C38.7533 5.20148 38.6924 5.21843 38.6607 5.24749C38.6242 5.27897 38.5706 5.2935 38.4975 5.2935C38.4269 5.2935 38.3782 5.30561 38.3611 5.33225C38.3441 5.35162 38.2831 5.37584 38.2247 5.3831C38.1638 5.39037 38.1029 5.4049 38.0907 5.41701C38.0761 5.42669 37.9933 5.45091 37.908 5.47028C37.5986 5.53809 37.1626 5.63253 37.0554 5.65917C36.9945 5.6737 36.8581 5.70034 36.7509 5.71729C36.6437 5.73666 36.5073 5.76088 36.4464 5.77541C36.3855 5.78994 36.2636 5.79963 36.176 5.80205C36.0858 5.80205 35.9762 5.80931 35.9323 5.819L35.8495 5.83595L35.9226 5.8529C35.9835 5.86743 35.9762 5.86985 35.8739 5.87228C35.5036 5.88438 35.3258 5.89649 35.2283 5.91344L35.1187 5.93524L35.2161 5.94735C35.2697 5.95461 35.1406 5.96188 34.9263 5.9643C34.4829 5.96672 34.1589 5.99578 34.2539 6.02C34.3684 6.04906 33.7594 6.06359 32.5365 6.05632C31.3696 6.05148 31.0894 6.03937 31.1625 5.99336C31.182 5.98367 31.0383 5.97399 30.8483 5.97399C30.6412 5.97399 30.4195 5.95946 30.3002 5.93766C30.1905 5.91587 30.0127 5.88923 29.9055 5.8747C29.5157 5.82384 29.3428 5.7972 29.1869 5.7633C29.0992 5.74635 28.9798 5.72456 28.9189 5.71729C28.858 5.7076 28.7435 5.68581 28.6631 5.66886C28.5827 5.64948 28.4073 5.61074 28.2733 5.58168C28.1394 5.55262 27.9323 5.50418 27.8105 5.47028C27.6911 5.4388 27.5303 5.39763 27.4573 5.37826C27.2453 5.3274 27.0626 5.27655 26.9822 5.24749C26.8458 5.20148 26.6168 5.12883 26.4341 5.07797C26.3342 5.04891 26.2197 5.01017 26.1783 4.99322C26.1394 4.97626 26.0443 4.94236 25.9713 4.92057C25.8519 4.88182 25.6132 4.79464 25.4719 4.73894C25.4451 4.72684 25.3622 4.69535 25.2892 4.66871C24.9603 4.54763 24.8117 4.48709 24.7922 4.46772C24.7776 4.45561 24.7532 4.44592 24.7337 4.44592C24.7167 4.44592 24.6387 4.41686 24.5632 4.38296C24.4877 4.34664 24.3415 4.28367 24.2392 4.24008C23.8105 4.05604 22.9846 3.65646 22.9627 3.62256C22.9554 3.60803 22.9335 3.59834 22.914 3.59834C22.8872 3.59834 22.3586 3.31259 22.2441 3.2351C22.2246 3.22057 22.1759 3.19393 22.1345 3.17455C22.0955 3.15276 21.9956 3.09464 21.9152 3.04136C21.8348 2.98809 21.7374 2.92755 21.6984 2.90575C21.5717 2.83552 20.9189 2.40689 20.741 2.2737C20.6436 2.20347 20.5559 2.14535 20.5486 2.14535C20.5413 2.14535 20.4804 2.10419 20.417 2.05333C20.3537 2.0049 20.2757 1.94678 20.2465 1.9274C20.1832 1.88624 19.8275 1.61259 19.808 1.59079C19.8007 1.58353 19.7422 1.53267 19.674 1.4794C19.5668 1.39706 19.4718 1.3123 19.3232 1.17669C19.3013 1.15732 19.2502 1.11373 19.2087 1.07983C19.1698 1.04592 19.1332 1.00718 19.1308 0.995068C19.1259 0.980537 19.1016 0.963587 19.0748 0.953899C19.0504 0.944214 19.0285 0.917576 19.0285 0.898201C19.0285 0.876408 19.0163 0.86672 19.0041 0.873985C18.9895 0.883673 18.9164 0.830395 18.8409 0.760168C18.6484 0.580965 18.6363 0.568857 18.5291 0.476833C18.4755 0.430822 18.4341 0.382389 18.4389 0.372704C18.4463 0.348486 18.4268 0.350908 18.3415 0.382389Z" fill="white"/>
<path d="M47.2746 14.0184C47.1503 14.108 46.7679 14.3962 46.6924 14.4543C46.4902 14.6117 45.5693 15.2462 45.5425 15.2462C45.5377 15.2462 45.4792 15.2825 45.4159 15.3261C45.3525 15.3697 45.2843 15.4133 45.2648 15.423C45.2453 15.4327 45.1625 15.4835 45.0821 15.5344C44.9286 15.6361 44.1832 16.0744 44.1199 16.1011C44.1004 16.1107 44.0078 16.1616 43.9128 16.2149C43.7204 16.3214 43.0042 16.6774 42.7435 16.7961C42.5048 16.9026 42.3294 16.9801 42.1101 17.0746C42.0711 17.0915 41.9859 17.1278 41.925 17.1569C41.8641 17.186 41.8007 17.2078 41.7861 17.2078C41.7715 17.2078 41.7301 17.2247 41.6911 17.2441C41.6132 17.2828 41.2136 17.4378 41.1235 17.462C41.0894 17.4717 41.0529 17.4887 41.0383 17.4983C41.0261 17.508 40.9749 17.5298 40.9286 17.5419C40.8093 17.5783 40.6339 17.6412 40.5754 17.6679C40.5486 17.68 40.3781 17.7405 40.1978 17.7986C40.0175 17.8592 39.8373 17.9197 39.7959 17.9318C39.6448 17.9827 39.4256 18.0505 39.2965 18.0868C38.629 18.2757 38.5096 18.3096 38.1272 18.3992C37.7958 18.4767 37.6302 18.5106 37.2014 18.5929C37.0943 18.6147 37.0772 18.622 37.1162 18.6389C37.1479 18.6535 37.1259 18.6559 37.0553 18.6462C36.9944 18.6389 36.8799 18.6438 36.7995 18.6583C36.4828 18.7116 35.8251 18.7988 35.5815 18.8181C35.2429 18.8448 35.1308 18.8593 35.143 18.8763C35.1478 18.8884 34.8872 18.9029 34.5632 18.9102C34.2392 18.9199 33.8908 18.9368 33.791 18.9489C33.6911 18.9634 33.2185 18.9756 32.7434 18.978C32.2635 18.9828 31.9663 18.9901 32.0735 18.9998L32.2684 19.0143L32.0492 19.0167C31.9298 19.0167 31.7471 19.0095 31.6472 18.9998L31.4645 18.9828L31.6716 18.9756C32.0857 18.9634 31.6886 18.9271 31.0309 18.9174C30.685 18.9126 30.3951 18.9029 30.3878 18.8932C30.378 18.886 30.4097 18.8787 30.456 18.8763L30.5388 18.8738L30.4535 18.8521C30.4073 18.8399 30.2319 18.8254 30.0638 18.8206C29.6569 18.8085 29.6691 18.8085 29.6862 18.7818C29.7032 18.7552 29.6813 18.7528 29.3695 18.7455C29.1502 18.7407 28.9943 18.714 29.0382 18.6874C29.0528 18.6777 28.987 18.668 28.8896 18.6656C28.7921 18.6632 28.6728 18.6486 28.6265 18.6365C28.5802 18.622 28.4487 18.5954 28.3342 18.576C28.2197 18.5566 28.1247 18.53 28.1198 18.5154C28.1149 18.5033 28.0589 18.4888 27.998 18.4888C27.8664 18.484 27.7081 18.4525 27.786 18.4428L27.8348 18.4404L27.786 18.4186C27.7593 18.4065 27.6837 18.3968 27.6155 18.3968C27.4669 18.3944 27.3792 18.3726 27.3987 18.3435C27.406 18.3314 27.367 18.3217 27.3159 18.3217C27.1746 18.3217 27.065 18.2951 27.0845 18.266C27.0942 18.2515 27.0845 18.2466 27.0601 18.2563C27.0357 18.266 27.0187 18.2612 27.0187 18.2466C27.0187 18.2297 26.9943 18.2248 26.9627 18.2345C26.8944 18.2515 26.7483 18.2127 26.7239 18.1716C26.7142 18.1546 26.6557 18.1449 26.5826 18.1474C26.5144 18.1474 26.4633 18.1401 26.4706 18.128C26.4779 18.1159 26.4365 18.0941 26.3804 18.0771C26.322 18.0626 26.2002 18.0287 26.11 18.0021C26.0199 17.9754 25.9298 17.9609 25.9103 17.9681C25.8908 17.9754 25.8494 17.9706 25.8201 17.9585C25.786 17.9464 25.7787 17.9367 25.8007 17.9342C25.8859 17.9318 25.7617 17.8858 25.6618 17.8858C25.5449 17.8858 25.4791 17.8664 25.4986 17.835C25.5059 17.8228 25.4742 17.8132 25.4304 17.8107C25.3549 17.8107 25.2233 17.7696 25.2769 17.7672C25.3305 17.7623 25.2233 17.7163 25.1551 17.7163C25.0577 17.7163 24.97 17.6921 24.9846 17.6679C24.9894 17.6582 24.9505 17.6436 24.8944 17.6364C24.8384 17.6291 24.7799 17.6073 24.7653 17.5904C24.7531 17.5734 24.7093 17.554 24.6679 17.5492C24.6289 17.5468 24.568 17.5274 24.5339 17.5105C24.4998 17.4935 24.4365 17.4717 24.3926 17.462C24.3488 17.4548 24.3195 17.4378 24.3268 17.4257C24.3414 17.4015 24.2538 17.3676 24.2245 17.3845C24.1929 17.4039 24.0905 17.3555 24.1076 17.3288C24.1173 17.3143 24.093 17.3046 24.0491 17.3046C23.959 17.3046 23.8956 17.2828 23.9127 17.2538C23.92 17.2417 23.8981 17.2271 23.864 17.2199C23.8299 17.2126 23.7763 17.2029 23.7422 17.1956C23.7081 17.1884 23.6861 17.1714 23.6935 17.1593C23.7008 17.1448 23.6837 17.1351 23.652 17.1351C23.557 17.1351 23.4864 17.106 23.4864 17.0721C23.4864 17.0503 23.4596 17.0382 23.4206 17.0382C23.3573 17.0382 23.2477 16.9922 23.3037 16.9898C23.3597 16.9874 23.2501 16.9414 23.1868 16.9414C23.1502 16.9414 23.1137 16.9244 23.1064 16.905C23.0966 16.8857 23.0625 16.8687 23.0235 16.8687C22.987 16.8687 22.9431 16.8518 22.9261 16.8324C22.909 16.813 22.8774 16.7961 22.853 16.7961C22.8311 16.7961 22.7824 16.7743 22.7483 16.7476C22.7142 16.721 22.663 16.6992 22.6362 16.6992C22.607 16.6992 22.5777 16.6823 22.5704 16.6629C22.5607 16.6435 22.529 16.6266 22.4973 16.6266C22.4657 16.6266 22.4194 16.6048 22.3975 16.5781C22.3731 16.5515 22.3366 16.5297 22.3146 16.5297C22.2489 16.5297 22.1953 16.503 22.2099 16.4788C22.2172 16.4667 22.2026 16.457 22.1758 16.457C22.1514 16.457 22.11 16.4352 22.0857 16.4086C22.0613 16.382 22.0174 16.3602 21.9882 16.3602C21.959 16.3602 21.9151 16.3384 21.8908 16.3117C21.8664 16.2851 21.825 16.2633 21.8006 16.2633C21.7763 16.2633 21.7495 16.2464 21.7422 16.227C21.7324 16.2076 21.7008 16.1907 21.6691 16.1907C21.6374 16.1907 21.6009 16.1689 21.5863 16.1422C21.5716 16.1156 21.54 16.0938 21.5156 16.0938C21.4913 16.0938 21.4571 16.0768 21.4401 16.0575C21.423 16.0381 21.3914 16.0211 21.3694 16.0211C21.3475 16.0211 21.311 15.9993 21.2866 15.9727C21.2647 15.9461 21.2233 15.9243 21.1965 15.9243C21.1697 15.9243 21.1405 15.9073 21.1332 15.8879C21.1234 15.8686 21.099 15.8516 21.0771 15.8516C21.0552 15.8516 21.0187 15.8298 20.9943 15.8032C20.9724 15.7766 20.931 15.7548 20.9042 15.7548C20.8774 15.7548 20.8481 15.7378 20.8408 15.7184C20.8311 15.6991 20.8116 15.6821 20.7945 15.6821C20.7799 15.6821 20.7458 15.6603 20.7215 15.6337C20.6971 15.607 20.6581 15.5852 20.6313 15.5852C20.607 15.5852 20.5875 15.5683 20.5875 15.5489C20.5875 15.5295 20.5582 15.5053 20.5241 15.4981C20.4876 15.4884 20.4389 15.4642 20.4169 15.4424C20.395 15.4206 20.356 15.3891 20.3292 15.3721C20.054 15.1929 19.6082 14.8951 19.5521 14.8515C19.216 14.5948 18.473 14.0499 18.4316 14.0305C18.3999 14.016 18.3487 14.0112 18.3171 14.0184C18.2537 14.0354 17.4206 14.8394 17.4206 14.883C17.4206 14.8951 17.4084 14.9072 17.3962 14.9072C17.3548 14.9072 12.9504 19.2976 12.9821 19.3097C12.9991 19.3146 13.004 19.3291 12.9967 19.3436C12.9869 19.3582 12.9748 19.3558 12.9626 19.3364C12.9455 19.3122 12.9358 19.3122 12.9041 19.3364C12.853 19.3776 12.853 19.4211 12.9041 19.4018C12.926 19.3945 12.9333 19.3969 12.926 19.4139C12.9163 19.426 12.8895 19.4308 12.8651 19.4236C12.8408 19.4163 12.8115 19.4236 12.8018 19.4405C12.7921 19.455 12.7969 19.4744 12.8115 19.4793C12.8286 19.4841 12.8335 19.4986 12.8262 19.5132C12.8164 19.5277 12.8042 19.5253 12.7921 19.5059C12.775 19.4817 12.7653 19.4817 12.7336 19.5059C12.6922 19.5422 12.68 19.5931 12.719 19.5689C12.7336 19.5616 12.7433 19.564 12.7433 19.5785C12.7433 19.6173 12.6995 19.6318 12.6873 19.6003C12.6776 19.5761 12.6703 19.5761 12.6435 19.6003C12.6167 19.6246 12.6167 19.6342 12.641 19.6512C12.6654 19.6657 12.6654 19.6754 12.6337 19.7021C12.602 19.7287 12.5972 19.7263 12.6118 19.6924C12.6313 19.6439 12.5899 19.6415 12.546 19.6924C12.5217 19.7214 12.5217 19.7335 12.5436 19.7481C12.5655 19.7602 12.5533 19.7844 12.507 19.8256C12.4461 19.8788 12.4437 19.8788 12.4851 19.828C12.5119 19.7989 12.5241 19.7674 12.5168 19.7577C12.507 19.7505 12.2732 19.9684 11.9979 20.2445C11.6057 20.6368 11.5009 20.753 11.5277 20.7724C11.5545 20.7894 11.5497 20.7918 11.5156 20.7821C11.4595 20.7627 11.3109 20.9105 11.3572 20.9395C11.3743 20.9492 11.3767 20.9613 11.3596 20.971C11.345 20.9783 11.3304 20.9734 11.3255 20.9589C11.3207 20.9419 11.2257 21.0194 11.1136 21.1308C11.004 21.2398 10.9212 21.3367 10.9285 21.3464C10.9382 21.3536 10.9991 21.3028 11.0673 21.2325C11.1355 21.1623 11.194 21.109 11.1989 21.1115C11.2037 21.1163 11.0576 21.2689 10.8724 21.4456C10.6897 21.6248 10.6264 21.683 10.7336 21.574C10.8383 21.465 10.9187 21.3681 10.9114 21.3585C10.8944 21.3415 10.2439 21.9881 6.78715 25.4559C4.37545 27.8776 3.89067 28.3667 3.50821 28.7687C3.39615 28.8874 3.22806 29.0617 3.13305 29.161C3.04048 29.2579 2.89188 29.4153 2.80418 29.5122C2.71648 29.609 2.59955 29.735 2.54352 29.7907C2.41928 29.9166 2.42416 29.9408 2.59955 30.1394C2.80662 30.3719 3.55693 31.1129 3.93695 31.4592C4.13915 31.6432 4.64585 32.1276 5.06242 32.5344C5.98569 33.4328 10.8432 38.2422 10.8432 38.2568C10.8432 38.264 11.0624 38.4917 11.3329 38.7629C11.6008 39.0341 11.8615 39.3078 11.9102 39.3707C11.9589 39.4337 12.0076 39.487 12.0174 39.487C12.0271 39.487 12.0369 39.4991 12.0369 39.516C12.0369 39.5305 12.0539 39.5596 12.0734 39.5814C12.0929 39.6032 12.1709 39.6855 12.2415 39.7654C12.3633 39.8986 12.3804 39.9107 12.4729 39.9083C12.5484 39.9059 12.602 39.8817 12.6995 39.8066C12.8505 39.6928 13.5326 39.022 15.2768 37.2711C15.9663 36.5785 17.1794 35.3798 17.9687 34.6073C18.7604 33.8348 20.3171 32.2971 21.4303 31.1928C23.6252 29.0133 24.1319 28.5169 24.1734 28.5169C24.188 28.5169 24.3975 28.7106 24.6411 28.9479C24.8847 29.1852 25.1795 29.471 25.2964 29.5848C25.4158 29.6962 25.6009 29.873 25.7105 29.9795C26.0954 30.3476 29.8616 34.0842 30.2928 34.525C30.5315 34.7696 31.0138 35.2612 31.3646 35.6147C31.7154 35.9683 32.1442 36.4042 32.3196 36.5858C32.495 36.765 32.685 36.937 32.7386 36.9684L32.8409 37.0266L32.931 36.9757C32.9797 36.9466 33.5084 36.4429 34.1052 35.8521C35.2039 34.7647 35.7569 34.2271 37.1649 32.8637C37.8957 32.159 39.2112 30.8731 39.9566 30.1394C40.1393 29.9602 40.5851 29.5194 40.9481 29.161L41.6083 28.512L41.6765 28.5629C41.8129 28.667 47.9859 34.7744 49.9177 36.7142C50.461 37.2615 51.3014 38.0945 51.7813 38.5667C52.2636 39.0414 52.763 39.5378 52.8897 39.6758L53.1211 39.9229H53.2405H53.3599L53.8861 39.3828C54.3367 38.9203 59.2113 34.0721 62.3222 30.9966C62.9409 30.3815 63.3185 29.9917 63.3283 29.9529C63.338 29.9069 63.3283 29.8681 63.2893 29.8149C63.226 29.7301 63.1188 29.6405 63.092 29.6478C63.0822 29.6526 63.0676 29.6332 63.0603 29.6066C63.0506 29.58 63.0311 29.5582 63.0116 29.5582C62.9945 29.5582 62.975 29.5364 62.9677 29.5073C62.9604 29.4783 62.9434 29.4637 62.9263 29.4734C62.9093 29.4831 62.8922 29.4686 62.8849 29.4395C62.8776 29.4105 62.8557 29.3887 62.8386 29.3887C62.8191 29.3887 62.8045 29.3766 62.8045 29.362C62.8045 29.3209 62.31 28.8583 62.2832 28.8729C62.271 28.8825 62.2686 28.8777 62.2759 28.8632C62.2832 28.8511 62.2028 28.7542 62.0932 28.6476C61.986 28.5435 61.9056 28.4733 61.9153 28.4927C61.9251 28.512 61.6376 28.236 61.2747 27.8751C60.8313 27.4392 60.6242 27.2164 60.6437 27.2043C60.6632 27.1922 60.6559 27.185 60.6242 27.185C60.5682 27.185 60.405 27.0276 60.405 26.9719C60.405 26.9501 60.3904 26.9307 60.3709 26.9234C60.3465 26.9162 60.3441 26.9234 60.3587 26.9452C60.3733 26.9743 60.3709 26.9743 60.3392 26.9476C60.3173 26.9283 60.3027 26.9016 60.31 26.8823C60.3173 26.8653 60.3124 26.8435 60.2978 26.8338C60.2832 26.8266 60.271 26.8314 60.271 26.8459C60.271 26.8605 60.2613 26.8653 60.2466 26.858C60.2345 26.8508 60.2223 26.8241 60.2223 26.7999C60.2223 26.7709 60.2052 26.7563 60.1809 26.7587C60.1516 26.7612 60.137 26.7442 60.137 26.7127C60.137 26.6813 60.12 26.6643 60.0883 26.6643C60.0566 26.6643 60.0396 26.6498 60.042 26.6231C60.0444 26.5989 60.0371 26.5844 60.0274 26.5917C60.0177 26.5965 59.9884 26.5868 59.9641 26.5674C59.9348 26.5456 59.93 26.5335 59.9494 26.5311C59.9665 26.5311 59.9738 26.519 59.9665 26.5069C59.9567 26.4924 59.9421 26.4875 59.93 26.4948C59.8983 26.5142 59.7083 26.3325 59.7205 26.2962C59.7278 26.2793 59.7205 26.2599 59.7058 26.2502C59.6888 26.2405 59.6863 26.2429 59.6961 26.2599C59.7058 26.2768 59.7034 26.2889 59.6888 26.2889C59.6669 26.2889 59.6084 26.2042 59.6035 26.1679C59.6035 26.1606 59.5889 26.1582 59.5718 26.163C59.5548 26.1679 59.5402 26.1485 59.5402 26.1219C59.5402 26.0952 59.528 26.0662 59.5109 26.0565C59.4939 26.0444 59.4915 26.0492 59.5036 26.071C59.5158 26.0904 59.5109 26.0976 59.489 26.0904C59.4695 26.0831 59.4549 26.0589 59.4549 26.0323C59.4549 26.0032 59.4379 25.9862 59.4062 25.9862C59.3745 25.9862 59.3575 25.9717 59.3599 25.9451C59.3623 25.9209 59.3575 25.9039 59.3477 25.9063C59.2966 25.9112 59.2698 25.8966 59.2771 25.8579C59.282 25.8361 59.2722 25.8191 59.2552 25.8216C59.2405 25.824 59.2137 25.8095 59.1943 25.7877C59.1675 25.7538 59.1675 25.7489 59.1967 25.7683C59.2211 25.7804 59.2259 25.778 59.2137 25.7586C59.204 25.7441 59.187 25.7368 59.1748 25.7441C59.1528 25.7562 59.1066 25.7102 59.1041 25.6714C59.1017 25.6569 59.0919 25.6472 59.0798 25.6472C59.0408 25.6472 58.9287 25.5382 58.9433 25.5164C58.958 25.4898 58.7655 25.2961 58.729 25.3033C58.7144 25.3058 58.6997 25.2936 58.6973 25.2767C58.6949 25.2622 58.6924 25.2355 58.69 25.2234C58.69 25.2089 58.6681 25.1992 58.6461 25.204C58.6145 25.2089 58.6047 25.1968 58.6096 25.1653C58.6169 25.1338 58.6072 25.1241 58.5828 25.1338C58.5365 25.1508 58.4927 25.1072 58.5097 25.0612C58.5195 25.037 58.5097 25.0273 58.4781 25.0345C58.444 25.0394 58.4342 25.0297 58.4391 24.9958C58.4464 24.9643 58.4366 24.9546 58.4098 24.9643C58.3904 24.9716 58.3611 24.9595 58.3416 24.9377C58.3197 24.911 58.3197 24.9038 58.3392 24.9183C58.3611 24.9304 58.366 24.9231 58.3563 24.9013C58.3489 24.882 58.3246 24.8674 58.3027 24.8699C58.2759 24.8723 58.2637 24.8577 58.2686 24.8263C58.2759 24.7948 58.2661 24.7851 58.2418 24.7948C58.2003 24.8093 58.0785 24.6931 58.0956 24.6519C58.1005 24.6374 58.0883 24.618 58.0664 24.6083C58.0396 24.5986 58.0323 24.6035 58.0444 24.6253C58.0542 24.6398 58.0274 24.6229 57.9835 24.5817C57.9397 24.5429 57.9129 24.4969 57.9202 24.4776C57.9275 24.4558 57.9202 24.4485 57.8983 24.4558C57.8593 24.4727 57.6303 24.2475 57.6571 24.2184C57.6693 24.2087 57.6644 24.2063 57.6498 24.2136C57.6157 24.233 57.5353 24.1506 57.5597 24.124C57.5718 24.1143 57.567 24.1095 57.5523 24.1143C57.5158 24.124 57.3672 23.9932 57.3843 23.9666C57.3891 23.9545 57.377 23.9472 57.3526 23.9496C57.3258 23.9521 57.3112 23.9351 57.3112 23.9036C57.3112 23.8697 57.2966 23.8576 57.2649 23.8625C57.2332 23.8697 57.2235 23.86 57.2332 23.8334C57.2405 23.814 57.2284 23.785 57.2064 23.7656C57.1796 23.7438 57.1723 23.7438 57.1869 23.7632C57.1991 23.785 57.1918 23.7898 57.165 23.7801C57.1431 23.7704 57.1309 23.7511 57.1382 23.7341C57.1431 23.7172 57.1285 23.6978 57.1017 23.6905C57.0749 23.6832 57.0578 23.6639 57.0603 23.6469C57.0651 23.63 57.0554 23.6154 57.0383 23.613C57.0018 23.613 56.9701 23.5791 56.9701 23.5452C56.9701 23.5283 56.9531 23.5162 56.9336 23.5162C56.9141 23.5162 56.897 23.4992 56.897 23.4798C56.897 23.458 56.8776 23.4459 56.8532 23.4508C56.8313 23.4556 56.8093 23.4459 56.8093 23.4314C56.8069 23.4193 56.8045 23.3975 56.802 23.3854C56.802 23.3733 56.7899 23.3539 56.7777 23.3418C56.7655 23.3297 56.7631 23.3345 56.7728 23.3515C56.7826 23.3684 56.7801 23.383 56.7655 23.383C56.7314 23.383 56.6875 23.2982 56.7095 23.274C56.7192 23.2619 56.7119 23.2619 56.6949 23.2716C56.6559 23.2934 56.5097 23.1505 56.5341 23.1142C56.5463 23.0948 56.5414 23.0924 56.5219 23.1045C56.4829 23.1263 55.4866 22.1334 55.5109 22.0946C55.5207 22.0801 55.5182 22.0753 55.5036 22.0825C55.4744 22.0995 54.9238 21.557 54.9238 21.511C54.9214 21.4965 54.9092 21.4844 54.8946 21.4868C54.88 21.4892 54.8532 21.4771 54.8386 21.4578C54.8215 21.4384 54.8166 21.4214 54.8288 21.4214C54.841 21.4214 54.824 21.4069 54.7899 21.3899C54.7557 21.3706 54.7314 21.3415 54.7363 21.3221C54.7411 21.3028 54.7363 21.2955 54.7265 21.3076C54.6997 21.3318 54.4975 21.1308 54.4975 21.0776C54.4975 21.0485 54.4853 21.0412 54.4585 21.0509C54.4342 21.0606 54.4171 21.0485 54.4074 21.0146C54.4025 20.9879 54.3757 20.9613 54.3489 20.954C54.3197 20.9468 54.3075 20.9274 54.3173 20.9056C54.327 20.8814 54.3173 20.8693 54.2856 20.8717C54.2588 20.8741 54.2417 20.8596 54.2417 20.8281C54.2417 20.7966 54.2271 20.7821 54.2003 20.787C54.1784 20.7894 54.154 20.7821 54.1443 20.7676C54.137 20.7555 54.1419 20.7434 54.1589 20.7434C54.1808 20.7434 54.1808 20.7361 54.1565 20.7095C54.1419 20.6901 54.1151 20.678 54.0956 20.6852C54.0761 20.6925 54.0663 20.6828 54.0663 20.6538C54.0688 20.632 54.0566 20.6102 54.042 20.6077C54.0249 20.6053 53.9957 20.6029 53.9811 20.6005C53.9592 20.5981 53.9592 20.5908 53.986 20.5738C54.0127 20.5569 54.0079 20.5472 53.9543 20.5278C53.9177 20.5133 53.8909 20.4891 53.8934 20.4721C53.8983 20.4528 53.8812 20.4431 53.8544 20.4479C53.8227 20.4552 53.813 20.4455 53.8227 20.4189C53.83 20.3995 53.8203 20.3704 53.8008 20.3559C53.774 20.3317 53.7667 20.3317 53.7667 20.3535C53.7667 20.3704 53.7545 20.3753 53.7423 20.368C53.7277 20.3583 53.7204 20.3341 53.7229 20.3123C53.7277 20.2857 53.7155 20.2736 53.6887 20.2784C53.6498 20.2857 53.6327 20.2566 53.6425 20.2033C53.6449 20.1912 53.6376 20.1888 53.6254 20.1961C53.5937 20.2154 53.4427 20.0726 53.4622 20.0411C53.4695 20.0266 53.4695 20.0169 53.4573 20.0193C53.4037 20.029 53.3745 20.012 53.3818 19.9757C53.3867 19.9515 53.3769 19.9321 53.3599 19.9321C53.3209 19.9321 52.0858 18.7043 52.1004 18.6801C52.1077 18.6704 52.098 18.6607 52.0785 18.6607C52.042 18.6607 51.908 18.5324 51.9129 18.4985C51.9153 18.4888 51.9007 18.4791 51.8861 18.4791C51.869 18.4791 51.8544 18.467 51.8544 18.4549C51.8544 18.4089 51.8154 18.3701 51.7886 18.3847C51.774 18.3944 51.7691 18.3895 51.7789 18.375C51.7959 18.3459 51.7253 18.266 51.696 18.2854C51.6863 18.2927 51.679 18.2781 51.6814 18.2539C51.6839 18.2273 51.6668 18.2127 51.6351 18.2127C51.601 18.2127 51.5889 18.1982 51.5937 18.1691C51.5986 18.1377 51.5889 18.128 51.5572 18.1328C51.5255 18.1377 51.5158 18.128 51.5206 18.0941C51.528 18.0626 51.5182 18.0529 51.4914 18.0626C51.4719 18.0699 51.4427 18.0577 51.4232 18.036C51.3964 18.0045 51.3964 18.0021 51.4256 18.0166C51.4476 18.0311 51.4549 18.0287 51.4476 18.0045C51.4403 17.9851 51.4159 17.9706 51.3891 17.9706C51.3599 17.9706 51.3428 17.9536 51.3428 17.9221C51.3428 17.8907 51.3282 17.8761 51.3014 17.881C51.2795 17.8834 51.2551 17.8761 51.2454 17.8616C51.2381 17.8495 51.2429 17.8374 51.2576 17.8374C51.2722 17.8374 51.277 17.8253 51.2697 17.8132C51.26 17.7986 51.2356 17.7914 51.2137 17.7938C51.1845 17.7986 51.1747 17.7865 51.1796 17.755C51.1869 17.7236 51.1772 17.7139 51.1528 17.7236C51.109 17.7405 51.0627 17.6969 51.0797 17.6533C51.0919 17.6243 51.0627 17.6073 51.0091 17.617C50.9993 17.617 50.9969 17.6025 51.0042 17.5831C51.0139 17.5637 51.0066 17.5444 50.992 17.5444C50.9287 17.5371 50.9189 17.5347 50.8995 17.5129C50.8873 17.5008 50.8946 17.4983 50.9165 17.5105C50.9457 17.5274 50.9482 17.525 50.9214 17.4959C50.9043 17.4766 50.8775 17.462 50.8605 17.462C50.8434 17.462 50.8312 17.4499 50.8312 17.433C50.8312 17.3966 50.7996 17.3652 50.763 17.3652C50.746 17.3652 50.7338 17.353 50.7338 17.3361C50.7338 17.3191 50.7192 17.2925 50.6997 17.2756C50.6705 17.2489 50.668 17.2489 50.6851 17.278C50.6973 17.3022 50.6948 17.307 50.6753 17.2949C50.6607 17.2852 50.6534 17.2683 50.6607 17.2562C50.6729 17.2344 50.6266 17.1884 50.5876 17.186C50.5755 17.1835 50.5633 17.1714 50.5633 17.1593C50.5633 17.1448 50.5535 17.1351 50.5438 17.1375C50.5072 17.1424 50.3806 17.0068 50.3976 16.9825C50.4049 16.968 50.4001 16.9656 50.3879 16.9728C50.3586 16.9898 50.2758 16.9099 50.2953 16.8857C50.3026 16.876 50.3002 16.8736 50.2904 16.8808C50.2685 16.8978 49.5279 16.1616 49.5279 16.1228C49.5279 16.1059 49.5182 16.0962 49.506 16.1035C49.4841 16.118 49.4354 16.072 49.4329 16.0332C49.4305 16.0187 49.4159 16.009 49.4013 16.009C49.3842 16.009 49.3696 15.9969 49.3696 15.9848C49.3696 15.9388 49.3306 15.9001 49.3038 15.9146C49.2892 15.9243 49.2843 15.9194 49.2916 15.9073C49.3087 15.8807 49.2673 15.8323 49.2234 15.8298C49.2113 15.8274 49.1991 15.8201 49.1991 15.808C49.1991 15.7693 49.1577 15.7305 49.1333 15.7451C49.1187 15.7548 49.1138 15.7523 49.1211 15.7402C49.1357 15.7136 49.0724 15.6385 48.7265 15.2825C48.5974 15.1493 48.305 14.8442 48.0785 14.6069C47.3988 13.8974 47.4207 13.9119 47.2746 14.0184ZM13.3524 18.9852C13.3524 18.9901 13.3329 19.0095 13.3109 19.0264C13.272 19.0579 13.2695 19.0555 13.3012 19.0167C13.3329 18.978 13.3524 18.9659 13.3524 18.9852ZM33.8592 18.9925C33.8348 18.9974 33.791 18.9974 33.7617 18.9925C33.7301 18.9877 33.7495 18.9828 33.8031 18.9828C33.8567 18.9804 33.8811 18.9852 33.8592 18.9925ZM33.2234 19.0143C33.216 19.0216 33.1941 19.024 33.1771 19.0167C33.1576 19.0095 33.1649 19.0022 33.1917 19.0022C33.2185 18.9998 33.2331 19.007 33.2234 19.0143ZM33.4694 19.0167C33.4329 19.0216 33.3671 19.0216 33.3232 19.0167C33.2794 19.0119 33.3086 19.007 33.389 19.007C33.4694 19.007 33.5059 19.0119 33.4694 19.0167ZM13.2549 19.0797C13.2549 19.0845 13.2257 19.1136 13.1891 19.1475L13.1209 19.2056L13.1794 19.1378C13.2354 19.0773 13.2549 19.0603 13.2549 19.0797ZM13.1087 19.2274C13.1087 19.2323 13.0917 19.2492 13.0722 19.2662C13.0405 19.2928 13.0381 19.2904 13.0503 19.2565C13.0625 19.2226 13.1087 19.2008 13.1087 19.2274ZM12.4266 19.9055C12.4266 19.9103 12.4072 19.9297 12.3852 19.9466C12.3463 19.9781 12.3438 19.9757 12.3755 19.937C12.4072 19.8982 12.4266 19.8861 12.4266 19.9055ZM12.2318 20.0968C12.2318 20.1016 12.2025 20.1307 12.166 20.1646L12.0978 20.2227L12.1562 20.1549C12.2123 20.0944 12.2318 20.0774 12.2318 20.0968ZM11.8907 20.4358C11.8907 20.4407 11.8615 20.4697 11.8249 20.5036L11.7567 20.5617L11.8152 20.4939C11.8712 20.4334 11.8907 20.4164 11.8907 20.4358ZM11.7445 20.5835C11.7445 20.5884 11.7251 20.6077 11.7031 20.6247C11.6642 20.6562 11.6617 20.6538 11.6934 20.615C11.7251 20.5763 11.7445 20.5642 11.7445 20.5835ZM11.2817 21.0461C11.2646 21.0679 11.2452 21.0776 11.2403 21.0727C11.2232 21.0558 11.2573 21.0097 11.2866 21.0097C11.3012 21.0097 11.3012 21.0243 11.2817 21.0461ZM10.5265 21.7919C10.5265 21.7968 10.4973 21.8258 10.4607 21.8597L10.3925 21.9179L10.451 21.8501C10.507 21.7895 10.5265 21.7726 10.5265 21.7919ZM10.2829 22.0341C10.2829 22.0389 10.2464 22.0728 10.205 22.114L10.1246 22.1842L10.1952 22.1043C10.2634 22.0317 10.2829 22.0147 10.2829 22.0341ZM9.94186 22.3756C9.94186 22.3804 9.92237 22.3998 9.90044 22.4167C9.86147 22.4482 9.85903 22.4458 9.8907 22.407C9.92237 22.3683 9.94186 22.3562 9.94186 22.3756ZM9.74697 22.5717C9.68851 22.6323 9.63491 22.6807 9.6276 22.6807C9.6203 22.6807 9.66415 22.6323 9.72261 22.5717C9.78108 22.5112 9.83467 22.4627 9.84198 22.4627C9.84929 22.4627 9.80544 22.5112 9.74697 22.5717ZM9.60081 22.7122C9.60081 22.7146 9.52042 22.7945 9.42541 22.8865L9.24758 23.056L9.4181 22.8793C9.57401 22.717 9.60081 22.6928 9.60081 22.7122ZM9.2354 23.0754C9.2354 23.0778 9.14526 23.1674 9.03564 23.274L8.83345 23.4677L9.02833 23.2667C9.2086 23.0827 9.2354 23.056 9.2354 23.0754ZM8.48022 23.8285C8.48022 23.8334 8.46073 23.8528 8.4388 23.8697C8.39983 23.9012 8.39739 23.8988 8.42906 23.86C8.46073 23.8213 8.48022 23.8092 8.48022 23.8285ZM58.7972 25.3687C58.8045 25.3808 58.7996 25.3929 58.7874 25.3929C58.7728 25.3929 58.7606 25.3808 58.7606 25.3687C58.7606 25.3542 58.7655 25.3445 58.7704 25.3445C58.7777 25.3445 58.7899 25.3542 58.7972 25.3687ZM58.8946 25.4656C58.9019 25.4777 58.8971 25.4898 58.8849 25.4898C58.8703 25.4898 58.8581 25.4777 58.8581 25.4656C58.8581 25.4511 58.863 25.4414 58.8678 25.4414C58.8751 25.4414 58.8873 25.4511 58.8946 25.4656Z" fill="white"/>
<path d="M3.74464 14.779C3.73002 14.8129 3.73246 14.8153 3.75682 14.7935C3.77387 14.7766 3.78118 14.7572 3.77387 14.7499C3.76656 14.7427 3.75195 14.7548 3.74464 14.779Z" fill="white"/>
<path d="M30.6557 18.8958C30.6776 18.9006 30.7117 18.9006 30.7288 18.8958C30.7434 18.8885 30.7264 18.8837 30.6849 18.8837C30.646 18.8837 30.6313 18.8885 30.6557 18.8958Z" fill="white"/>
<path d="M57.969 24.5451C57.9763 24.5572 57.9885 24.5693 57.9958 24.5693C58.0007 24.5693 58.0056 24.5572 58.0056 24.5451C58.0056 24.5306 57.9934 24.5209 57.9788 24.5209C57.9666 24.5209 57.9617 24.5306 57.969 24.5451Z" fill="white"/>
<path d="M58.1394 24.715C58.1467 24.7271 58.1589 24.7393 58.1662 24.7393C58.1711 24.7393 58.176 24.7271 58.176 24.715C58.176 24.7005 58.1638 24.6908 58.1492 24.6908C58.137 24.6908 58.1321 24.7005 58.1394 24.715Z" fill="white"/>
<path d="M58.9921 25.5629C59.0164 25.5895 59.0408 25.6113 59.0481 25.6113C59.0554 25.6113 59.0408 25.5895 59.0164 25.5629C58.9921 25.5363 58.9677 25.5145 58.9604 25.5145C58.9531 25.5145 58.9677 25.5363 58.9921 25.5629Z" fill="white"/>
<path d="M59.7595 26.3371C59.7595 26.3492 59.7717 26.3613 59.7863 26.3613C59.7985 26.3613 59.8034 26.3492 59.7961 26.3371C59.7888 26.3226 59.7766 26.3129 59.7693 26.3129C59.7644 26.3129 59.7595 26.3226 59.7595 26.3371Z" fill="white"/>
</g>
<defs>
<clipPath id="clip0_583_385">
<rect width="65" height="40" fill="white"/>
</clipPath>
</defs>
</svg>
