<svg width="24" height="24" viewBox="0 0 24 24" fill="none" xmlns="http://www.w3.org/2000/svg">
<path d="M3 22C2.45 22 1.97933 21.8043 1.588 21.413C1.19667 21.0217 1.00067 20.5507 1 20V10C1 9.71667 1.096 9.47933 1.288 9.288C1.48 9.09667 1.71733 9.00067 2 9C2.28267 8.99933 2.52033 9.09533 2.713 9.288C2.90567 9.48067 3.00133 9.718 3 10V20H19C19.2833 20 19.521 20.096 19.713 20.288C19.905 20.48 20.0007 20.7173 20 21C19.9993 21.2827 19.9033 21.5203 19.712 21.713C19.5207 21.9057 19.2833 22.0013 19 22H3ZM7 18C6.45 18 5.97933 17.8043 5.588 17.413C5.19667 17.0217 5.00067 16.5507 5 16V6C5 5.71667 5.096 5.47933 5.288 5.288C5.48 5.09667 5.71733 5.00067 6 5H10V3C10 2.45 10.196 1.97933 10.588 1.588C10.98 1.19667 11.4507 1.00067 12 1H16C16.55 1 17.021 1.196 17.413 1.588C17.805 1.98 18.0007 2.45067 18 3V5H22C22.2833 5 22.521 5.096 22.713 5.288C22.905 5.48 23.0007 5.71733 23 6V16C23 16.55 22.8043 17.021 22.413 17.413C22.0217 17.805 21.5507 18.0007 21 18H7ZM12 5H16V3H12V5Z" fill="#333333"/>
</svg>
