<svg width="117" height="40" viewBox="0 0 117 40" fill="none" xmlns="http://www.w3.org/2000/svg">
<g clip-path="url(#clip0_583_322)">
<path d="M15.8839 0.284184C14.816 0.514301 13.1938 1.17759 12.0583 1.8544C11.1525 2.38232 9.35463 4.06083 8.63816 5.03545C7.96226 5.94239 7.12413 7.6209 6.77265 8.75796C6.44822 9.82733 6.15082 11.8578 6.25896 12.1827C6.34007 12.3722 6.67803 12.3992 9.1113 12.3857C10.6389 12.3722 12.0042 12.3316 12.1529 12.291C12.3827 12.2368 12.4368 12.115 12.4368 11.7089C12.4368 10.626 13.1262 9.12344 14.0995 8.09468C16.7761 5.25203 21.3453 5.61752 23.5758 8.85271C24.0354 9.50246 24.6032 11.0185 24.6032 11.5735C24.6032 12.4263 24.5085 12.3992 27.5636 12.3857C29.0912 12.3857 30.4565 12.3722 30.5917 12.3857C30.808 12.3857 30.8215 12.8459 30.8215 20.0338V27.6818L27.7529 27.7089L24.6707 27.7495L24.5761 28.5075C24.3869 30.0507 23.5893 31.4991 22.4132 32.4331C21.129 33.4483 20.1286 33.8003 18.52 33.7867C15.2621 33.7732 12.6936 31.4043 12.4097 28.1556L12.3692 27.7495L9.30056 27.7089L6.21841 27.6818V20.0338V12.3857L3.58236 12.3722C2.13591 12.3586 0.743537 12.3451 0.513727 12.3316L0.067627 12.318V19.9661V27.6141L3.12274 27.6547L6.17785 27.6818L6.27248 28.6158C6.62395 32.1082 8.27317 35.208 10.9227 37.3197C12.1529 38.2943 13.9643 39.2013 15.4784 39.6074C16.9248 39.9864 19.8988 40.027 21.2777 39.6886C25.0087 38.7546 27.9016 36.4263 29.5373 33.0422C30.2132 31.6344 30.6323 30.1454 30.7675 28.697L30.8621 27.6818L33.8902 27.6547L36.9047 27.6141V20.0338V12.4534L36.1342 12.4263C35.7016 12.3992 34.3498 12.3722 33.1196 12.3586L30.9026 12.318L30.7269 11.0321C30.5106 9.4077 30.1321 8.13528 29.4562 6.79518C27.861 3.61413 24.8735 1.23173 21.3723 0.351864C19.9935 0.0134544 17.3574 -0.027153 15.8839 0.284184Z" fill="white"/>
<path d="M45.0426 12.4262C44.921 12.5751 44.0558 15.3365 43.5151 17.2587C43.3799 17.746 43.2312 18.2468 43.1906 18.3686C43.1095 18.5852 43.1771 18.6123 43.6908 18.6123C44.2856 18.6123 44.2991 18.6123 44.4884 17.9626L44.6912 17.3263H45.5563H46.435L46.6378 17.9626C46.8406 18.5988 46.8541 18.6123 47.4218 18.6123C47.7328 18.6123 47.9896 18.5717 47.9896 18.504C47.9896 18.4499 47.5705 17.0421 47.0704 15.3636L46.1511 12.3179L45.6645 12.2908C45.3941 12.2773 45.1102 12.3314 45.0426 12.4262ZM45.8808 15.1605C46.0024 15.6343 46.0971 16.0675 46.0971 16.1081C46.0971 16.1487 45.8537 16.1758 45.5428 16.1758C45.1508 16.1758 45.0021 16.1216 45.0562 15.9998C45.0832 15.9186 45.1913 15.4854 45.286 15.0522C45.3806 14.6326 45.5023 14.2807 45.5563 14.2807C45.6104 14.2807 45.7591 14.6732 45.8808 15.1605Z" fill="white"/>
<path d="M48.6384 12.3316C48.5708 12.3857 48.5303 13.8206 48.5303 15.5261V18.626L49.1116 18.5854L49.6793 18.5448L49.6928 17.5295V16.5143L50.2876 16.5278C51.0987 16.5414 51.5043 17.0151 51.5043 17.9492V18.6124H52.0585H52.6128L52.5587 17.6649C52.5181 16.8527 52.4506 16.6632 52.1532 16.3519L51.7882 15.9864L52.2072 15.5261C52.5857 15.0794 52.6128 14.9847 52.5587 14.2402C52.5046 13.4957 52.4506 13.3874 51.9369 12.9136C51.4502 12.4534 51.3015 12.3857 50.7337 12.3857C50.3823 12.3857 49.7875 12.3451 49.409 12.3045C49.044 12.2639 48.6925 12.2639 48.6384 12.3316ZM50.8148 13.4822C51.9774 13.8882 51.6124 15.3637 50.3282 15.3637H49.7469V14.4432C49.7469 13.9289 49.7875 13.4686 49.8415 13.428C49.9632 13.2926 50.3282 13.3197 50.8148 13.4822Z" fill="white"/>
<path d="M53.4646 12.4128C53.424 12.5075 53.4105 13.9289 53.424 15.5668L53.4646 18.5448L54.0459 18.5854L54.6271 18.626L54.5866 17.137C54.5595 16.3113 54.5866 15.6344 54.6407 15.6344C54.6812 15.6344 54.9516 16.2977 55.2219 17.1234L55.7221 18.6124H56.2358H56.7495L57.2767 17.0828L57.7904 15.5668L57.858 17.0558L57.9256 18.5448L58.5069 18.5854L59.0746 18.626L59.0476 15.472L59.007 12.318H58.4663H57.9256L57.1145 14.6463C56.6684 15.9322 56.2764 16.9881 56.2358 16.9881C56.1952 16.9881 55.8032 15.9322 55.3571 14.6463L54.546 12.318L54.0323 12.2774C53.7079 12.2503 53.5051 12.291 53.4646 12.4128Z" fill="white"/>
<path d="M60.1559 12.3586C60.0748 12.3857 60.0208 13.5634 60.0208 15.5126V18.626L61.6159 18.5854L63.1975 18.5448V18.071V17.5972L62.2513 17.5837L61.305 17.5566L61.2644 16.8121L61.2239 16.0541L62.1431 16.0135L63.0623 15.9728V15.4991V15.0253L62.1431 14.9847L61.2239 14.9441L61.2644 14.1725L61.305 13.4009L62.2513 13.3333L63.1975 13.2656L63.2381 12.8189C63.2651 12.5346 63.2246 12.3857 63.1029 12.3857C61.5753 12.3316 60.2641 12.3316 60.1559 12.3586Z" fill="white"/>
<path d="M63.9412 15.4313V18.6123H64.4819H65.0226L65.0361 16.5412V14.4837L66.077 16.5412L67.1179 18.6123H67.6857H68.267V15.526C68.267 13.8204 68.2399 12.3991 68.1994 12.372C68.1724 12.3314 67.929 12.3314 67.6722 12.3585L67.199 12.4126L67.1585 14.4431L67.1179 16.46L66.3204 14.8627C65.1037 12.4262 64.9685 12.2502 64.4143 12.2502H63.9412V15.4313Z" fill="white"/>
<path d="M69.3484 15.4177V18.6123H69.8891H70.4298L70.4028 15.4583L70.3623 12.3179L69.8621 12.2773L69.3484 12.2367V15.4177Z" fill="white"/>
<path d="M72.39 13.834C71.8358 15.6478 71.1193 18.0167 71.0247 18.3686C70.9571 18.5717 71.0517 18.6123 71.5519 18.6123C72.1332 18.6123 72.1467 18.6123 72.336 17.9626L72.5387 17.3263H73.4039H74.2826L74.4853 17.9626C74.6881 18.5988 74.7016 18.6123 75.2694 18.6123C75.5803 18.6123 75.8372 18.5717 75.8372 18.504C75.8372 18.4499 75.4181 17.0421 74.9179 15.3636L74.0122 12.3179L73.4444 12.2773L72.8767 12.2367L72.39 13.834ZM73.7283 15.1605C73.85 15.6343 73.9446 16.0675 73.9446 16.1081C73.9446 16.1487 73.7013 16.1758 73.3904 16.1758C72.9983 16.1758 72.8496 16.1216 72.9037 15.9998C72.9308 15.9186 73.0389 15.4854 73.1335 15.0522C73.2282 14.6326 73.3498 14.2807 73.4039 14.2807C73.458 14.2807 73.6067 14.6732 73.7283 15.1605Z" fill="white"/>
<path d="M76.4726 12.345C76.4185 12.3856 76.3779 13.8204 76.3779 15.526V18.6123H76.9187H77.4459L77.4864 16.5412L77.527 14.4837L78.5814 16.5412L79.6223 18.6123H80.2306H80.8389V15.4989V12.3856H80.2306H79.6223L79.6088 14.4431V16.5142L78.5273 14.3754C77.4729 12.2773 77.4594 12.2502 77.0133 12.2502C76.7564 12.2502 76.5131 12.2908 76.4726 12.345Z" fill="white"/>
<path d="M60.886 21.7124C60.5751 21.8478 60.183 22.1727 60.0073 22.4163C59.6964 22.8495 59.6829 22.9849 59.6829 24.7987C59.6829 26.8969 59.7505 27.0864 60.6156 27.7361C61.1699 28.1558 62.4946 28.1287 63.1165 27.6955C63.8465 27.1676 64.0763 26.5043 64.0763 24.7581C64.0763 22.9172 63.8194 22.2674 62.8596 21.7666C62.1567 21.3876 61.6295 21.374 60.886 21.7124ZM62.5217 23.0119C62.8326 23.3097 62.8596 23.4316 62.8596 24.7446C62.8596 25.9629 62.8191 26.2065 62.5758 26.5179C62.2243 26.9646 61.5889 26.9916 61.1428 26.572C60.8589 26.3013 60.8319 26.1795 60.8319 24.8123C60.8319 23.4316 60.8454 23.3233 61.1699 23.0119C61.3456 22.8224 61.6565 22.6735 61.8458 22.6735C62.035 22.6735 62.3459 22.8224 62.5217 23.0119Z" fill="white"/>
<path d="M81.5553 21.6577C81.3255 21.7525 80.9335 22.1044 80.7172 22.4158C80.2981 22.9843 80.2981 22.9978 80.2981 24.7711C80.2981 26.409 80.3251 26.5985 80.609 27.0181C81.1362 27.8032 81.731 28.1146 82.6097 28.0604C83.5289 27.9928 84.1508 27.5867 84.5023 26.8151C84.8267 26.1112 84.8672 23.634 84.5698 22.9301C84.0562 21.7119 82.7179 21.1433 81.5553 21.6577ZM83.1504 22.9301C83.4478 23.1738 83.4749 23.3092 83.5154 24.6899C83.5695 26.1383 83.556 26.1924 83.218 26.5308C82.799 26.9505 82.1636 26.9775 81.7851 26.5985C81.5418 26.3548 81.5147 26.1518 81.5147 24.7846C81.5147 23.2686 81.5283 23.2279 81.8662 22.9572C82.3123 22.6053 82.7449 22.5917 83.1504 22.9301Z" fill="white"/>
<path d="M43.6097 21.8068C43.5015 22.091 43.5015 26.7882 43.6097 27.4379C43.6908 27.9252 43.7178 27.9523 44.218 27.9523H44.7452V25.8812L44.7587 23.8237L45.7996 25.8541L46.8405 27.8846L47.4218 27.9252L47.9896 27.9658V24.7848V21.5902H47.4488H46.9081V23.6206C46.9081 24.7306 46.8676 25.6511 46.8135 25.6376C46.7459 25.6376 46.2457 24.7306 45.6915 23.6206L44.6776 21.5902H44.191C43.8665 21.5902 43.6637 21.6579 43.6097 21.8068Z" fill="white"/>
<path d="M50.504 21.6983C50.4229 21.8337 48.6655 27.7085 48.6655 27.8574C48.6655 27.9115 48.9224 27.9521 49.2333 27.9251C49.7875 27.8845 49.8146 27.8574 50.0038 27.2347L50.2066 26.585L51.0853 26.6256L51.964 26.6662L52.1667 27.3024C52.356 27.9521 52.3695 27.9521 52.9508 27.9521C53.4645 27.9521 53.5456 27.9115 53.478 27.7085C53.4375 27.5867 53.0995 26.4361 52.721 25.1772C51.5719 21.2923 51.6936 21.5901 51.0988 21.5901C50.8149 21.5901 50.5446 21.6307 50.504 21.6983ZM51.4097 24.5274C51.5314 25.0012 51.6395 25.4073 51.6395 25.4479C51.6395 25.4885 51.3827 25.5156 51.0853 25.5156C50.5716 25.5156 50.531 25.4885 50.6121 25.2043C50.6527 25.0418 50.7608 24.5816 50.842 24.189C50.9366 23.7965 51.0447 23.5258 51.0988 23.5799C51.1529 23.634 51.2881 24.0672 51.4097 24.5274Z" fill="white"/>
<path d="M53.397 22.118V22.6594L54.0458 22.7L54.6812 22.7406L54.7218 25.3396L54.7488 27.9521H55.2895H55.8302V25.3126V22.673H56.5197H57.1956L57.155 22.1586L57.1145 21.6577L55.2625 21.6171L53.397 21.5765V22.118Z" fill="white"/>
<path d="M57.8579 24.7711V27.9521H58.3986H58.9394V24.7711V21.5901H58.3986H57.8579V24.7711Z" fill="white"/>
<path d="M64.7522 24.7712V27.9523H65.2929H65.8201L65.8607 25.9354L65.9012 23.9184L66.9421 25.8948L67.9695 27.8846L68.5238 27.9252L69.078 27.9658V24.7848V21.5902H68.5373H67.9966L67.983 23.7154V25.8541L66.9016 23.7154L65.8337 21.5902H65.2929H64.7522V24.7712Z" fill="white"/>
<path d="M71.241 22.5647C70.7408 24.2703 69.754 27.5325 69.6729 27.7491C69.6053 27.9115 69.7134 27.9521 70.1866 27.9521C70.7814 27.9521 70.7949 27.9521 70.9841 27.3024L71.1869 26.6662L72.0926 26.6256L72.9848 26.585L73.1741 27.2347C73.3633 27.8709 73.3769 27.8845 73.9176 27.9251C74.3231 27.9521 74.4853 27.9115 74.4853 27.7897C74.4853 27.5867 72.7821 21.9285 72.6604 21.7254C72.6198 21.6577 72.336 21.5901 72.0521 21.5901H71.5249L71.241 22.5647ZM72.5928 25.2719C72.5928 25.4615 72.4847 25.5156 72.1061 25.5156H71.606L71.7006 25.0012C71.7412 24.7305 71.8493 24.2567 71.9304 23.9589L72.0926 23.4175L72.336 24.2296C72.4711 24.6763 72.5928 25.1501 72.5928 25.2719Z" fill="white"/>
<path d="M75.1611 24.7711V27.9521H76.7157H78.2703V27.4107V26.8692H77.2565H76.2426V24.2296V21.5901H75.7019H75.1611V24.7711Z" fill="white"/>
<path d="M85.3944 21.6849C85.3404 21.7255 85.2998 23.1604 85.2998 24.866V27.9658L85.8811 27.9252L86.4489 27.8846L86.4624 26.8694L86.4759 25.8541L87.3681 25.7729C87.8547 25.7323 88.409 25.597 88.6118 25.4616C89.8825 24.6223 89.7473 22.5377 88.3684 21.8744C87.9088 21.6579 87.5303 21.5902 86.6381 21.5902C86.0028 21.5902 85.435 21.6308 85.3944 21.6849ZM88.1657 23.0792C88.774 23.8372 88.2062 24.7036 87.1112 24.7036H86.5164V23.6748V22.6325L87.2194 22.7002C87.7331 22.7543 87.9899 22.8626 88.1657 23.0792Z" fill="white"/>
<path d="M90.1665 24.7711V27.9521H91.7211H93.2757V27.4107V26.8692H92.2618H91.2344L91.275 26.0841L91.3156 25.3126H92.2348H93.1405V24.8117V24.3109L92.2348 24.2703L91.3156 24.2296V23.4851V22.7406L92.3024 22.7L93.2757 22.6594V22.1315V21.5901H91.7211H90.1665V24.7711Z" fill="white"/>
<path d="M93.9514 24.7711V27.9521H94.4921H95.0194L95.0599 26.8963L95.1005 25.854L95.5871 25.8134C96.3712 25.7457 96.8173 26.2195 96.8984 27.1806L96.9525 27.9521H97.4797H98.0069V27.2212C98.0069 26.3413 97.8582 25.9217 97.4526 25.5291L97.1417 25.2449L97.4256 25.0418C98.1421 24.541 98.1961 23.0926 97.5202 22.3752C96.9389 21.766 96.4117 21.5901 95.1005 21.5901H93.9514V24.7711ZM96.3712 22.876C97.02 23.2009 97.1147 23.8506 96.5875 24.3785C96.3171 24.6493 96.1414 24.717 95.6682 24.6763L95.1005 24.6357L95.0599 23.9725C94.9923 22.9302 95.1005 22.673 95.5871 22.673C95.8034 22.673 96.1684 22.7677 96.3712 22.876Z" fill="white"/>
<path d="M100.116 21.8202C100.075 21.9555 99.6832 23.3092 99.2236 24.8388C98.7775 26.3684 98.3855 27.695 98.3449 27.7762C98.3043 27.898 98.4666 27.9521 98.8856 27.9521C99.4804 27.9521 99.4804 27.9521 99.6697 27.3024L99.8589 26.6662L100.751 26.6256L101.63 26.585L101.86 27.2753C102.076 27.9386 102.103 27.9521 102.617 27.9521C102.914 27.9521 103.144 27.8845 103.144 27.8032C103.144 27.7085 102.738 26.2872 102.238 24.6222L101.332 21.5901H100.765C100.332 21.5901 100.17 21.6442 100.116 21.8202ZM101.197 25.0689C101.278 25.5156 101.278 25.5156 100.778 25.5156H100.264L100.359 25.0012C100.4 24.7305 100.508 24.2567 100.602 23.9589L100.751 23.4175L100.927 24.0131C101.035 24.3515 101.157 24.8252 101.197 25.0689Z" fill="white"/>
<path d="M44.9481 31.0928C44.9076 31.2282 43.5017 35.9253 43.1772 37.0623C43.1096 37.2789 43.1772 37.306 43.6774 37.2654C44.2452 37.2248 44.2722 37.1977 44.4885 36.6156L44.7183 36.0065L45.5835 35.9659L46.4486 35.9253L46.6514 36.575C46.8407 37.1977 46.8677 37.2248 47.422 37.2654C47.7599 37.2925 47.9897 37.2518 47.9897 37.1571C47.9897 37.0217 47.0705 33.9219 46.4486 31.9456L46.1377 30.998L45.5835 30.9574C45.205 30.9304 44.9887 30.971 44.9481 31.0928ZM46.0972 34.7476C46.0972 34.8153 45.8538 34.8559 45.5429 34.8559C45.0833 34.8559 45.0022 34.8153 45.0698 34.6123C45.1103 34.4904 45.205 34.1114 45.2861 33.773C45.5429 32.7307 45.5835 32.7307 45.8403 33.7053C45.9755 34.2197 46.0972 34.6935 46.0972 34.7476Z" fill="white"/>
<path d="M48.6655 34.1121V37.2931H49.2063H49.7335L49.774 35.222L49.8146 33.1645L50.842 35.195L51.8829 37.2254L52.4371 37.266L52.9914 37.3066V34.1256V30.931H52.4506H51.9099L51.8964 33.0562V35.195L50.8149 33.0562L49.747 30.931H49.2063H48.6655V34.1121Z" fill="white"/>
<path d="M53.9377 34.1119V37.293H55.1949C56.6955 37.293 57.3984 37.0222 57.8445 36.2913C58.1149 35.8581 58.1554 35.6415 58.1419 34.1661C58.1284 32.4334 58.0202 32.0679 57.4254 31.4994C56.9658 31.0798 56.3575 30.9309 55.0598 30.9309H53.9377V34.1119ZM56.763 32.5011C57.0064 32.8124 57.0469 33.0561 57.0469 34.1119C57.0469 35.1678 57.0064 35.4114 56.763 35.7227C56.5197 36.0205 56.3845 36.0747 55.7492 36.0747H55.0192V34.1119V32.1491H55.7492C56.3845 32.1491 56.5197 32.2033 56.763 32.5011Z" fill="white"/>
<path d="M61.0482 31.1339C60.94 31.4182 60.94 36.7921 61.0482 37.0764C61.1157 37.2524 61.3591 37.293 62.3459 37.293C63.6031 37.293 64.0627 37.1576 64.5223 36.6432C65.0495 36.0612 65.0495 34.7752 64.5358 34.2473C64.3466 34.0578 64.3466 33.9901 64.5494 33.4486C64.8603 32.6365 64.6575 31.892 63.9816 31.3776C63.549 31.0392 63.3462 30.9986 62.3189 30.9579C61.3185 30.9173 61.1293 30.9444 61.0482 31.1339ZM63.5625 32.3251C63.7383 32.5958 63.6842 33.1914 63.4679 33.3674C63.3598 33.4486 63.0353 33.5569 62.7244 33.5975L62.1837 33.6788V32.853C62.1837 32.1085 62.2107 32.0273 62.4946 31.9867C62.8596 31.919 63.4274 32.1085 63.5625 32.3251ZM63.6977 34.8158C63.8329 34.9376 63.941 35.2219 63.941 35.4791C63.941 36.0476 63.5355 36.3454 62.765 36.3454H62.1837V35.4656V34.5857H62.819C63.2111 34.5857 63.5355 34.6669 63.6977 34.8158Z" fill="white"/>
<path d="M66.78 31.9056C66.6178 32.4471 66.2258 33.7736 65.9014 34.8566C65.5769 35.9395 65.293 36.9141 65.266 37.0224C65.239 37.1713 65.3742 37.239 65.7932 37.266L66.361 37.3066L66.5367 36.6569L66.726 36.0071L67.6182 35.9665L68.5239 35.9259L68.7131 36.5757C68.9024 37.2119 68.9159 37.2254 69.4566 37.266C69.8352 37.2931 70.0244 37.2525 70.0244 37.1442C70.0244 36.9276 68.4022 31.4725 68.24 31.1611C68.1589 30.9987 67.9561 30.931 67.5911 30.931H67.0639L66.78 31.9056ZM68.0778 34.4099C68.1589 34.8566 68.1589 34.8566 67.6587 34.8566H67.145L67.2397 34.3422C67.2802 34.0714 67.3884 33.5977 67.483 33.2999L67.6317 32.7584L67.8074 33.354C67.9156 33.6924 68.0372 34.1662 68.0778 34.4099Z" fill="white"/>
<path d="M70.5649 34.1121V37.3066L72.1601 37.266C73.7417 37.2254 73.7417 37.2254 73.7552 36.887C73.7823 36.2914 73.6876 36.2237 72.7143 36.1831L71.7681 36.1425L71.741 33.5706L71.714 30.9987L71.1462 30.9581L70.5649 30.9175V34.1121Z" fill="white"/>
<path d="M74.3501 34.1119V37.293H75.9047H77.4593V36.7515V36.2101H76.4454H75.4316V33.5705V30.9309H74.8908H74.3501V34.1119Z" fill="white"/>
<path d="M78.1353 34.1119V37.293H79.6898H81.2444V36.7515V36.2101H80.2306H79.2032L79.2437 35.4249L79.2843 34.6534L80.2035 34.6128L81.1093 34.5722V34.1119V33.6517L80.2035 33.6111L79.2843 33.5705L79.2437 32.7854L79.2032 32.0138H80.2306H81.2444V31.4723V30.9309H79.6898H78.1353V34.1119Z" fill="white"/>
<path d="M81.8798 31.0256C81.8257 31.0662 81.7852 31.3099 81.7852 31.5671V32.0138H82.4611H83.137V34.6534V37.293H83.6777H84.2184V34.6534V32.0138H84.8943H85.5703V31.4723V30.9309H83.7723C82.772 30.9309 81.9203 30.9715 81.8798 31.0256Z" fill="white"/>
<path d="M87.5575 31.0258C87.5034 31.0664 87.4629 31.31 87.4629 31.5672V32.0139H88.1388H88.8147V34.667V37.3066L89.369 37.266L89.9232 37.2254L89.9097 34.843C89.8962 33.5435 89.9232 32.3659 89.9773 32.244C90.0313 32.0816 90.2206 32.0139 90.6532 32.0139H91.248V31.4725V30.931H89.4501C88.4497 30.931 87.5981 30.9716 87.5575 31.0258Z" fill="white"/>
<path d="M91.8426 31.107C91.8156 31.2017 91.8021 32.6095 91.8156 34.2474L91.8562 37.2254L92.4374 37.266L93.0052 37.3066V36.0207V34.7212H93.8839H94.7626V36.0071V37.2931H95.3033H95.844V34.1121V30.931H95.3033H94.7761L94.7355 32.244L94.695 33.5706L94.1543 33.6112C93.0322 33.6924 93.0052 33.6654 93.0052 32.217V30.931H92.4645C92.14 30.931 91.8832 30.9987 91.8426 31.107Z" fill="white"/>
<path d="M96.6553 34.1119V37.293H98.2099H99.7645V36.7515V36.2101H98.7506H97.7232L97.7638 35.4249L97.8043 34.6534H98.7236H99.6293V34.1525V33.6517L98.7236 33.6111L97.8043 33.5705V32.826V32.0815L98.7911 32.0409L99.7645 32.0002V31.4723V30.9309H98.2099H96.6553V34.1119Z" fill="white"/>
<path d="M101.873 31.5671C101.765 31.919 101.359 33.2456 100.981 34.518C100.602 35.7769 100.264 36.9275 100.224 37.0493C100.156 37.2524 100.237 37.293 100.751 37.293C101.332 37.293 101.346 37.293 101.535 36.6432L101.738 36.007L102.617 35.9664L103.495 35.9258L103.698 36.5755C103.887 37.1982 103.914 37.2253 104.469 37.2659C104.779 37.293 105.036 37.2659 105.036 37.1982C105.036 37.1441 104.617 35.7227 104.117 34.0442L103.211 30.9986L102.644 30.9579C102.089 30.9173 102.089 30.9173 101.873 31.5671ZM103.144 34.7481C103.144 34.8158 102.9 34.8564 102.59 34.8564C102.13 34.8564 102.049 34.8158 102.116 34.6128C102.157 34.4909 102.252 34.1119 102.333 33.7735C102.59 32.7312 102.63 32.7312 102.887 33.7058C103.022 34.2202 103.144 34.694 103.144 34.7481Z" fill="white"/>
<path d="M104.766 31.4723V32.0138H105.374H105.983V34.6534V37.293H106.591H107.199V34.6534V32.0138H107.808H108.416V31.4723V30.9309H106.591H104.766V31.4723Z" fill="white"/>
<path d="M109.011 31.107C108.984 31.2017 108.97 32.6095 108.984 34.2474L109.024 37.2254L109.606 37.266L110.173 37.3066V36.2237V35.1273H110.701C111.458 35.1273 111.931 35.7093 111.931 36.6298V37.3066L112.512 37.266C113.026 37.2254 113.08 37.1848 113.12 36.8329C113.188 36.2237 113.039 35.6011 112.661 35.0596L112.323 34.5452L112.607 34.2474C113.431 33.3676 113.093 31.8109 111.931 31.1882C111.35 30.8769 109.133 30.8092 109.011 31.107ZM111.579 32.2982C112.377 32.9209 111.809 34.0444 110.701 34.0444H110.173V33.0291V32.0139H110.701C111.025 32.0139 111.35 32.1222 111.579 32.2982Z" fill="white"/>
<path d="M113.756 31.0934C113.715 31.2017 113.702 32.6095 113.715 34.2474L113.756 37.2254L115.351 37.266L116.932 37.3066V36.7516V36.2102H115.918H114.905V35.398V34.5858H115.851H116.797V34.1121V33.6383H115.851H114.905V32.8261V32.0139H115.932H116.946L116.905 31.4995L116.865 30.9987L115.337 30.9581C114.188 30.931 113.796 30.9581 113.756 31.0934Z" fill="white"/>
</g>
<defs>
<clipPath id="clip0_583_322">
<rect width="117" height="40" fill="white"/>
</clipPath>
</defs>
</svg>
