<svg width="420" height="590" viewBox="0 0 420 590" fill="none" xmlns="http://www.w3.org/2000/svg">
<path d="M589.346 55.9426C547.161 2.32704 489.395 -36.8962 424 -56.3291C358.604 -75.7619 288.792 -74.4491 224.174 -52.5712C159.555 -30.6933 103.304 10.6741 63.1647 65.8379C23.0249 121.002 0.968536 187.25 0.0311523 255.466C-0.906232 323.681 19.3214 390.511 57.9303 446.757C96.5392 503.003 151.631 545.9 215.625 569.545C279.618 593.19 349.367 596.421 415.272 578.793C481.177 561.164 539.999 523.543 583.641 471.107L425.763 339.704C409.286 359.502 387.077 373.706 362.195 380.361C337.312 387.017 310.978 385.797 286.817 376.87C262.656 367.943 241.856 351.747 227.279 330.511C212.702 309.275 205.065 284.043 205.419 258.288C205.773 232.533 214.1 207.521 229.255 186.693C244.41 165.866 265.648 150.248 290.045 141.988C314.442 133.728 340.799 133.232 365.49 140.569C390.18 147.906 411.99 162.715 427.917 182.957L589.346 55.9426Z" fill="#0097FE"/>
</svg>
